<?xml version="1.0" encoding="UTF-8"?>
<svg id="_圖層_8" data-name="圖層_8" xmlns="http://www.w3.org/2000/svg" version="1.1" viewBox="0 0 2834.65 2834.65">
  <!-- Generator: Adobe Illustrator 29.5.1, SVG Export Plug-In . SVG Version: 2.1.0 Build 141)  -->
  <defs>
    <style>
      .st0 {
        fill: #ebf0f9;
      }
    </style>
  </defs>
  <g>
    <path class="st0" d="M1237.18,2174.12v116.07h50.03v17.8h-73.56v-133.87h23.53Z"/>
    <path class="st0" d="M1319.64,2256.97c0,24.52,11.07,34.01,28.67,34.01s26.3-12.66,26.3-34.01v-82.85h23.53v84.63c0,27.29-13.25,50.42-52.4,50.42s-49.44-23.14-49.44-50.42v-84.63h23.33v82.85Z"/>
    <path class="st0" d="M1463.59,2173.73c32.63,0,47.06,13.45,47.06,36.58,0,15.23-7.12,27.88-24.52,33.22,14.83,8.3,21.95,29.46,36.98,64.46h-25.51c-17.99-41.92-24.72-57.94-44.49-57.94h-5.73v57.94h-23.53v-133.87c3.96,0,29.27-.4,39.75-.4ZM1462.6,2232.85c14.63,0,23.14-6.72,23.14-19.58,0-11.67-5.74-22.74-25.11-22.74h-13.25v42.32h15.23Z"/>
    <path class="st0" d="M1560.88,2174.12v133.87h-23.53v-133.87h23.53ZM1641.75,2307.99h-27.29l-51.02-72.37v-1.38c24.32-8.9,36.38-29.86,43.5-60.11h23.14c-8.5,39.55-20.37,53.19-36.98,64.26l48.64,69.6Z"/>
    <path class="st0" d="M1733.7,2174.12v17.8h-55.96v37.37h46.07l-2.97,17.99h-43.11v42.91h58.93v17.8h-82.46v-133.87h79.49Z"/>
    <path class="st0" d="M1794.41,2173.73c44.49,0,66.04,22.74,66.04,66.44s-21.36,68.22-68.62,68.22c-16.21,0-32.03-.4-36.19-.4v-133.87c3.96,0,26.5-.4,38.76-.4ZM1779.18,2290.59c2.97.2,6.92.2,15.62.2,27.49,0,40.14-16.41,40.14-48.45s-11.67-51.02-43.3-51.02c-5.93,0-10.08.2-12.46.2v99.07Z"/>
  </g>
  <g>
    <path class="st0" d="M1728.17,2462.05c0,20.17-15.62,40.34-44.49,40.34-20.57,0-37.57-9.69-42.91-12.85l8.3-18.19c.2.2,21.75,12.66,33.02,12.66,13.84,0,20.76-7.32,20.76-19.58s-7.51-16.21-19.77-21.16c-23.73-9.89-37.97-19.18-37.97-42.12,0-19.38,17.6-35.59,42.12-35.59,18.39,0,35,7.91,38.76,10.48l-9.69,17.01c0-.2-15.82-9.1-27.88-9.1-9.49,0-17.6,4.35-17.6,13.84,0,11.86,7.51,18.59,23.73,24.92,20.96,8.3,33.62,17.4,33.62,39.35Z"/>
    <path class="st0" d="M1827.43,2385.13h-33.22v116.07h-23.33v-116.07h-33.81v-17.8h93.33l-2.97,17.8Z"/>
    <path class="st0" d="M1867.77,2450.18c0,24.52,11.07,34.01,28.67,34.01s26.3-12.66,26.3-34.01v-82.85h23.53v84.63c0,27.29-13.25,50.42-52.4,50.42s-49.43-23.14-49.43-50.42v-84.63h23.33v82.85Z"/>
    <path class="st0" d="M2010.74,2366.93c44.49,0,66.04,22.74,66.04,66.44s-21.36,68.22-68.62,68.22c-16.21,0-32.03-.4-36.19-.4v-133.87c3.96,0,26.5-.4,38.76-.4ZM1995.51,2483.8c2.97.2,6.92.2,15.62.2,27.49,0,40.14-16.41,40.14-48.45s-11.67-51.02-43.3-51.02c-5.93,0-10.08.2-12.46.2v99.07Z"/>
    <path class="st0" d="M2122.66,2367.33v133.87h-23.53v-133.87h23.53Z"/>
    <path class="st0" d="M2201.36,2502.39c-39.55,0-55.96-24.52-55.96-66.44s18.39-70.39,58.53-70.39,55.76,25.9,55.76,67.63-18.39,69.21-58.33,69.21ZM2204.13,2484.19c22.94,0,30.25-20.96,30.25-49.04s-5.93-51.41-33.22-51.41c-22.94,0-30.25,21.75-30.25,50.03,0,26.69,5.93,50.42,33.22,50.42Z"/>
    <path class="st0" d="M2361.92,2462.05c0,20.17-15.62,40.34-44.49,40.34-20.57,0-37.57-9.69-42.91-12.85l8.3-18.19c.2.2,21.75,12.66,33.02,12.66,13.84,0,20.76-7.32,20.76-19.58s-7.51-16.21-19.77-21.16c-23.73-9.89-37.97-19.18-37.97-42.12,0-19.38,17.6-35.59,42.12-35.59,18.39,0,35,7.91,38.76,10.48l-9.69,17.01c0-.2-15.82-9.1-27.88-9.1-9.49,0-17.6,4.35-17.6,13.84,0,11.86,7.51,18.59,23.73,24.92,20.96,8.3,33.62,17.4,33.62,39.35Z"/>
  </g>
  <g>
    <path class="st0" d="M859.43,1285.14l740-861.37c-113.98,207.97-1069.96,1273.94-884,1488l660-148s326,160,698,4l136,78,364.89,78.39-511.85-194.99s-347.33,161.48-667.24-15.23l-626.3,144.64c44.07-262.85,134.04-550.73,745.39-1123.08,0,0,18.73-272.5,232-428l-420,272c82.67,24.86-601.71,906.08-624,360l-424,1252.45-18,335.18,383.11-601.36s-230.96-37.14,216-640.63Z"/>
    <path class="st0" d="M2205.63,1874.61l-110.2,61.17-7.23-3.66c-78.49-39.78-166.35-56.8-254.12-50.54-193.4,13.8-348.15-70.08-462.66-91.8-23.58-4.47-684,174-684,174l-427.11,563.36,243.11-189.56s430.89-470.07,1278.74-331.15l216.32,89.73,575.83-171.99-368.69-49.56Z"/>
  </g>
</svg>