<?xml version="1.0" encoding="UTF-8"?>
<svg id="_負空間月之箭LOGO" xmlns="http://www.w3.org/2000/svg" version="1.1" viewBox="0 0 4472.02 2759.55">
  <!-- Generator: Adobe Illustrator 29.4.0, SVG Export Plug-In . SVG Version: 2.1.0 Build 152)  -->
  <defs>
    <style>
      .st0 {
        fill: #fff;
      }
    </style>
  </defs>
  <path class="st0" d="M2853.04,1988.57l-193.42-211.78h-204.27c32.1,4.96,58.82,16.43,80.09,34.47,29.33,24.88,44,58.54,44,100.96h0c0,28.91-7.19,53.91-21.56,75.01-.32.47-.69.9-1.01,1.37h24.15l1.18-201.14,182.42,201.12h88.43,0Z"/>
  <path class="st0" d="M2519.32,2052.87c7.76,7.14,15.43,15.23,23.02,24.28,9.95,11.89,22.56,29.6,37.85,53.15l.45-77.44h-61.32Z"/>
  <rect class="st0" x="2223.03" y="1774.11" width="69.7" height="215.09"/>
  <path class="st0" d="M2431.28,1989.27c13.48-1.52,23.8-3.91,30.87-7.18,13.2-6.11,23.48-15.34,30.85-27.68,7.36-12.34,11.04-26.38,11.04-42.13s-4.09-29.56-12.27-42.13-19.69-21.45-34.52-26.62c-14.85-5.17-39.44-7.76-73.79-7.76h-21.03v153.5h68.86-.01Z"/>
  <path class="st0" d="M2739.56,2052.85l-178.46,174.84-11.33-16.1-22.01-36.48-23.78-38.99c-14.67-20.5-28.11-36.82-40.33-48.95s-23.25-20.88-33.09-26.23c-7.08-3.85-17.64-6.31-31.65-7.39h-36.49v213.82h253.31l220.3-214.52h-96.47,0Z"/>
  <g>
    <polygon class="st0" points="1342.21 2016.54 1342.21 2016.54 1342.21 2016.54 1342.21 2016.54"/>
    <path class="st0" d="M3137.61,1818.56l-6.09,16.56h-197.26v-59.31h-69.7v211.78h61.42v.33h149.32l-10.37,28.18h-1178.35c-.58-7.71-1.56-15.35-2.93-22.91h60.56v-215.09h-69.7v180.33c-30.52-87.7-113.33-158.33-219.72-175.93-148.85-24.63-287.47,63.86-309.6,197.63-2.02,12.2-2.99,24.36-2.99,36.4.52-9.2,1.6-18.64,3.21-28.35,18.15-109.69,133.6-181.95,257.88-161.39,124.27,20.56,210.3,126.15,192.16,235.85-18.15,109.7-133.6,181.95-257.88,161.39-58.53-9.68-119.26-46.43-153.94-85.38-8.94-10.04-16.28-20.33-22.19-30.95,34.73,79.88,113.65,142.77,213.21,159.24,136.33,22.56,264.05-49.78,301.58-164.88,1.3,15.74,3.33,28.51,6.11,38.3,5.22,18.36,11.83,33.88,19.83,46.55,8,12.67,17.8,24.12,29.4,34.34,38.27,33.01,89.07,49.51,152.39,49.51s112.49-16.62,151-49.86c11.6-9.99,21.4-21.32,29.4-34,8-12.67,14.73-28.53,20.18-47.59,5.31-18.56,8.02-45.86,8.16-81.85h-69.7c-.15,36.82-3.16,62.96-9.05,78.37-6.04,15.81-15.92,29.52-29.62,41.14-26.02,21.62-59.71,32.43-101.06,32.43-29.05,0-54.25-5.41-75.62-16.21-21.38-10.81-37.29-25.16-47.74-43.06-10.23-17.52-15.44-48.43-15.66-92.66h-58.37c1.3-11.7,1.65-23.33,1.11-34.83l1177.28-.94,11.09,30.15h-210.8v214.52h69.7v-61.71h197.31l6.04,16.42,348.6-201.26-348.6-201.26h0ZM3094.09,2021.68l267.97-.21-194.21-110.8,144.76,105.44h-217.84l57.63-156.67,277.8,160.39-277.8,160.39-58.32-158.53h.01Z"/>
  </g>
</svg>