<?xml version="1.0" encoding="UTF-8"?><svg id="_負空間月之箭LOGO" xmlns="http://www.w3.org/2000/svg" viewBox="0 0 4472.02 2759.553"><polygon points="2853.042 1988.573 2659.625 1776.791 2572.52 1776.791 2764.61 1988.573 2853.042 1988.573" fill="#fff"/><rect x="2864.564" y="1776.791" width="69.7" height="211.781" fill="#fff"/><rect x="2864.564" y="2052.855" width="69.7" height="214.518" fill="#fff"/><polygon points="2739.56 2052.855 2520.594 2267.373 2615.729 2267.373 2836.027 2052.855 2739.56 2052.855" fill="#fff"/><polygon id="_箭矢細線" points="3167.852 1906.66 3362.059 2017.465 1874.527 2018.657 1874.527 2012.104 3312.614 2012.104 3167.852 1906.66" fill="#fff"/><polygon id="_箭矢D" points="3458.211 2020.821 3145.013 1839.996 3078.493 2020.821 3145.013 2201.645 3458.211 2020.821" fill="none" stroke="#fff" stroke-miterlimit="10" stroke-width="28"/><g id="_大彎月_拷貝"><path d="M1342.211,2012.544c.518-9.202,1.604-18.644,3.21-28.349,18.149-109.695,133.605-181.952,257.877-161.391,124.273,20.561,210.304,126.154,192.155,235.848-18.149,109.695-133.605,181.952-257.878,161.391-58.527-9.683-119.26-46.434-153.935-85.384-8.936-10.038-16.284-20.335-22.194-30.945,34.735,79.875,113.653,142.772,213.208,159.243,148.854,24.628,287.466-63.856,309.6-197.633,22.133-133.777-80.594-262.19-229.448-286.818-148.854-24.628-287.466,63.856-309.6,197.633-2.019,12.205-2.995,24.364-2.995,36.405Z" fill="#fff"/></g><path d="M2579.439,1912.216c0,28.915-7.189,53.914-21.556,75.006-.321.471-.688.903-1.015,1.369h24.146l1.238-211.799h-126.902c32.104,4.961,58.823,16.427,80.092,34.468,29.331,24.884,43.997,58.536,43.997,100.956Z" fill="#fff"/><path d="M2519.316,2052.873c7.76,7.139,15.432,15.231,23.016,24.285,9.948,11.886,22.565,29.603,37.854,53.151l.452-77.436h-61.322Z" fill="#fff"/><rect x="2223.028" y="1774.111" width="69.7" height="215.086" fill="#fff"/><rect x="1874.527" y="1774.111" width="69.7" height="215.086" fill="#fff"/><path d="M2223.013,2053.479c-.15,36.818-3.161,62.962-9.047,78.366-6.045,15.809-15.916,29.521-29.623,41.143-26.023,21.617-59.714,32.426-101.065,32.426-29.046,0-54.251-5.405-75.625-16.214-21.378-10.809-37.29-25.158-47.745-43.059-10.232-17.517-15.443-48.426-15.662-92.662h-69.706c.156,37.448,2.755,65.104,7.813,82.899,5.219,18.364,11.829,33.88,19.832,46.546,8.002,12.673,17.798,24.117,29.399,34.345,38.271,33.008,89.068,49.511,152.389,49.511,62.158,0,112.493-16.617,150.998-49.86,11.596-9.992,21.397-21.323,29.399-33.996,8.002-12.666,14.727-28.532,20.179-47.592,5.306-18.563,8.025-45.864,8.163-81.853h-69.701Z" fill="#fff"/><path d="M2431.284,1989.271c13.483-1.519,23.796-3.908,30.872-7.184,13.196-6.112,23.483-15.339,30.847-27.679,7.359-12.34,11.04-26.383,11.04-42.131,0-15.513-4.092-29.556-12.271-42.134-8.179-12.57-19.687-21.447-34.523-26.618-14.847-5.168-39.436-7.757-73.789-7.757h-21.032v153.502h68.856Z" fill="#fff"/><path d="M2563.61,2231.259l-13.842-19.671-22.008-36.477-23.777-38.987c-14.674-20.502-28.115-36.824-40.33-48.953-12.22-12.132-23.25-20.878-33.09-26.23-7.079-3.848-17.641-6.306-31.647-7.389h-36.488v213.82h225.201l-19.76-30.032c-.711-1.189-2.132-3.217-4.259-6.082Z" fill="#fff"/><polygon points="3145.013 2200.648 3091.074 2053.078 2925.987 2053.078 2925.987 2205.882 3146.211 2205.882 3146.211 2199.957 3145.013 2200.648" fill="#fff"/><polygon points="3145.013 1841.02 3091.074 1988.59 2925.987 1988.59 2925.987 1835.786 3146.211 1835.786 3146.211 1841.711 3145.013 1841.02" fill="#fff"/></svg>